<svg width="78" height="58" viewBox="0 0 78 58" fill="none" xmlns="http://www.w3.org/2000/svg">
<g id="icon">
<path d="M24.524 29C24.524 35.7191 19.0341 41.166 12.262 41.166C5.48989 41.166 0 35.7191 0 29C0 22.2809 5.48989 16.834 12.262 16.834C19.0341 16.834 24.524 22.2809 24.524 29Z" fill="#D4A971"/>
<path d="M35.4236 57.5L26 45.8972C29.5424 42.2024 31.639 38.5 32.2445 37.1107C33.2664 34.9704 34.6969 29.1802 32.2445 23.1423C29.7921 17.1043 26.0757 13.8676 24.524 13.004L33.3799 0.5C36.8996 2.64032 39.738 5.90711 42.69 9.73715C45.0515 12.8012 47.0801 18.2233 47.7991 20.5514L67.1004 0.5L78 11.3142L61.1965 29L78 46.9111L66.7598 57.5L48.2533 37.6739C48.2911 38.8379 47.5493 42.4727 44.2795 47.6996C41.0096 52.9265 37.0131 56.4111 35.4236 57.5Z" fill="#D4A971"/>
</g>
</svg>
