<svg xmlns="http://www.w3.org/2000/svg">
    <svg xmlns="http://www.w3.org/2000/svg" xmlns:xlink="http://www.w3.org/1999/xlink" aria-hidden="true" style="position:absolute;width:0;height:0;overflow:hidden">
        <defs>
            <symbol id="icon-arrow-left" viewBox="0 0 46 32">
                <path d="M.586 14.586a2 2 0 0 0 0 2.828l12.728 12.728a2 2 0 1 0 2.828-2.828L4.828 16 16.142 4.686a2 2 0 1 0-2.828-2.828L.586 14.586zM2 18h44v-4H2v4z"/>
            </symbol>
            <symbol id="icon-arrow-right" viewBox="0 0 46 32">
                <path d="M45.414 14.586a2 2 0 0 1 0 2.828L32.686 30.142a2 2 0 1 1-2.828-2.828L41.172 16 29.858 4.686a2 2 0 1 1 2.828-2.828l12.728 12.728zM44 18H0v-4h44v4z"/>
            </symbol>
        </defs>
    </svg>
</svg>