<svg xmlns="http://www.w3.org/2000/svg">
    <svg xmlns="http://www.w3.org/2000/svg" xmlns:xlink="http://www.w3.org/1999/xlink" aria-hidden="true" style="position:absolute;width:0;height:0;overflow:hidden">
        <defs>
            <symbol id="icon-arrow-left" viewBox="0 0 46 32">
                <path d="M.586 14.586a2 2 0 0 0 0 2.828l12.728 12.728a2 2 0 1 0 2.828-2.828L4.828 16 16.142 4.686a2 2 0 1 0-2.828-2.828L.586 14.586zM2 18h44v-4H2v4z"/>
            </symbol>
            <symbol id="icon-arrow-right" viewBox="0 0 46 32">
                <path d="M45.414 14.586a2 2 0 0 1 0 2.828L32.686 30.142a2 2 0 1 1-2.828-2.828L41.172 16 29.858 4.686a2 2 0 1 1 2.828-2.828l12.728 12.728zM44 18H0v-4h44v4z"/>
            </symbol>
            <symbol id="icon-occupation" viewBox="0 0 23 32">
                <path d="M11.676 10.101c-2.753 0-4.984-2.237-4.984-4.997s2.231-4.997 4.984-4.997c2.753 0 4.984 2.237 4.984 4.997s-2.231 4.997-4.984 4.997z"></path>
                <path d="M0 14.543l4.753-3.84c1.514 1.443 3.030 2.298 3.6 2.545 0.877 0.416 3.249 0.999 5.722 0s3.8-2.514 4.153-3.146l5.123 3.609c-0.877 1.434-2.215 2.591-3.784 3.794-1.255 0.962-3.477 1.789-4.43 2.082l8.215 7.865-4.43 4.441-7.245-6.847-7.338 6.847-4.338-4.58 8.122-7.541c-0.477 0.015-1.966-0.287-4.107-1.619s-3.569-2.961-4.015-3.609z"></path>
            </symbol>
            <symbol id="icon-bg" viewBox="0 0 43 32">
                <path fill="#ef9156" style="fill: var(--color1, #ef9156)" d="M14.804 0c-20.167 0-14.989 8.489-11.582 12.027s8.857 15.705 17.033 19.101c10.22 4.245 10.901-7.782 19.758-19.101s0-12.027-25.208-12.027z"></path>
            </symbol>
            <symbol id="icon-arrow-bottom" viewBox="0 0 49 32">
                <path fill="transparent" stroke-linejoin="miter" stroke-linecap="butt" stroke-miterlimit="4" stroke-width="4.9231" d="M46.769 2.462l-22.154 24.615-22.154-24.615"></path>
            </symbol>
            <symbol id="icon-facebook" viewBox="0 0 31 32">
                <path d="M30.897 16.566c0-8.549-6.921-15.487-15.448-15.487s-15.448 6.938-15.448 15.487c0 7.496 5.314 13.737 12.359 15.177v-10.531h-3.090v-4.646h3.090v-3.872c0-2.989 2.425-5.42 5.407-5.42h3.862v4.646h-3.090c-0.85 0-1.545 0.697-1.545 1.549v3.097h4.634v4.646h-4.634v10.763c7.801-0.774 13.903-7.372 13.903-15.41z"></path>
            </symbol>
            <symbol id="icon-instagram" viewBox="0 0 31 32">
                <path d="M17.036 1.081c1.127-0.004 2.255 0.007 3.382 0.034l0.3 0.011c0.346 0.012 0.687 0.028 1.1 0.046 1.644 0.077 2.765 0.337 3.749 0.718 1.020 0.392 1.878 0.924 2.737 1.783 0.785 0.772 1.393 1.705 1.781 2.736 0.382 0.984 0.641 2.107 0.718 3.751 0.019 0.411 0.034 0.754 0.046 1.1l0.009 0.3c0.027 1.127 0.039 2.253 0.036 3.38l0.002 1.152v2.024c0.004 1.127-0.008 2.255-0.036 3.382l-0.009 0.3c-0.012 0.346-0.028 0.687-0.046 1.1-0.077 1.644-0.34 2.765-0.72 3.749-0.387 1.032-0.995 1.966-1.781 2.737-0.772 0.785-1.706 1.393-2.737 1.781-0.984 0.382-2.105 0.641-3.749 0.718-0.412 0.019-0.754 0.034-1.1 0.046l-0.3 0.009c-1.127 0.027-2.254 0.039-3.382 0.036l-3.174 0.002c-1.127 0.004-2.255-0.008-3.381-0.036l-0.3-0.009c-0.367-0.013-0.733-0.029-1.1-0.046-1.644-0.077-2.765-0.34-3.751-0.72-1.031-0.387-1.965-0.995-2.736-1.781-0.786-0.772-1.395-1.706-1.783-2.737-0.382-0.984-0.641-2.106-0.718-3.749-0.017-0.367-0.033-0.733-0.046-1.1l-0.008-0.3c-0.028-1.127-0.041-2.254-0.039-3.382v-3.176c-0.004-1.127 0.007-2.253 0.034-3.38l0.011-0.3c0.012-0.346 0.028-0.689 0.046-1.1 0.077-1.645 0.337-2.765 0.718-3.751 0.388-1.031 0.998-1.964 1.786-2.734 0.771-0.787 1.704-1.396 2.734-1.784 0.986-0.382 2.106-0.641 3.751-0.718l1.1-0.046 0.3-0.008c1.126-0.028 2.253-0.041 3.38-0.039l3.176 0.002zM15.448 8.804c-1.023-0.014-2.040 0.175-2.989 0.556s-1.814 0.948-2.543 1.667c-0.729 0.719-1.308 1.575-1.703 2.519s-0.598 1.958-0.598 2.981c0 1.023 0.203 2.037 0.598 2.981s0.974 1.8 1.703 2.519c0.729 0.719 1.593 1.285 2.543 1.667s1.966 0.571 2.989 0.556c2.048 0 4.013-0.814 5.462-2.262s2.262-3.413 2.262-5.462c0-2.049-0.814-4.013-2.262-5.462s-3.413-2.261-5.462-2.261zM15.448 11.894c0.616-0.011 1.227 0.1 1.799 0.328s1.093 0.567 1.532 0.998c0.439 0.431 0.788 0.946 1.027 1.514s0.361 1.177 0.361 1.793c0 0.616-0.122 1.225-0.361 1.793s-0.587 1.082-1.026 1.514c-0.439 0.431-0.96 0.771-1.532 0.999s-1.184 0.34-1.799 0.328c-1.229 0-2.408-0.488-3.277-1.357s-1.357-2.048-1.357-3.277 0.488-2.408 1.357-3.277c0.869-0.869 2.048-1.357 3.277-1.357l-0.002 0.002zM23.558 6.487c-0.498 0.020-0.97 0.232-1.315 0.592s-0.538 0.839-0.538 1.338 0.193 0.978 0.538 1.338c0.346 0.36 0.817 0.572 1.315 0.592 0.512 0 1.003-0.203 1.365-0.566s0.566-0.853 0.566-1.365c0-0.512-0.203-1.003-0.566-1.365s-0.853-0.566-1.365-0.566v0.003z"></path>
            </symbol>
            <symbol id="icon-viber" viewBox="0 0 29 32">
                <path d="M21.797 1.807l0.521 0.115c1.361 0.299 2.611 0.963 3.611 1.919s1.711 2.166 2.055 3.496c1.226 4.754 1.226 9.733 0 14.487-0.343 1.33-1.054 2.54-2.054 3.496s-2.25 1.621-3.61 1.92l-0.523 0.113c-3.082 0.678-6.245 0.926-9.397 0.737l-4.199 3.695c-0.103 0.090-0.228 0.151-0.363 0.178s-0.274 0.017-0.404-0.028-0.245-0.123-0.333-0.226c-0.089-0.103-0.147-0.228-0.17-0.362l-0.715-4.199c-1.281-0.349-2.446-1.026-3.376-1.961s-1.592-2.095-1.919-3.363c-1.226-4.754-1.226-9.733 0-14.487 0.343-1.33 1.054-2.54 2.054-3.495s2.25-1.62 3.61-1.92l0.521-0.113c4.837-1.064 9.854-1.064 14.691 0zM8.403 7.213c-0.286-0.041-0.577 0.016-0.826 0.16h-0.022c-0.577 0.333-1.096 0.752-1.539 1.245-0.369 0.419-0.569 0.843-0.621 1.251-0.031 0.242-0.009 0.487 0.063 0.718l0.028 0.015c0.415 1.199 0.956 2.354 1.617 3.44 0.853 1.525 1.902 2.936 3.121 4.198l0.037 0.051 0.058 0.042 0.035 0.041 0.043 0.036c1.287 1.204 2.724 2.241 4.277 3.086 1.776 0.951 2.854 1.401 3.501 1.588v0.009c0.189 0.058 0.361 0.083 0.535 0.083 0.551-0.040 1.073-0.261 1.482-0.626 0.5-0.436 0.923-0.948 1.252-1.519v-0.011c0.309-0.575 0.204-1.116-0.241-1.484-0.896-0.77-1.864-1.454-2.892-2.042-0.689-0.367-1.388-0.145-1.671 0.227l-0.604 0.75c-0.311 0.372-0.873 0.321-0.873 0.321l-0.015 0.009c-4.199-1.054-5.32-5.237-5.32-5.237s-0.052-0.569 0.337-0.859l0.756-0.599c0.363-0.29 0.615-0.977 0.226-1.655-0.594-1.012-1.288-1.965-2.071-2.844-0.171-0.207-0.41-0.348-0.677-0.398l0.003 0.002zM15.497 5.395c-0.204 0-0.399 0.080-0.544 0.222s-0.225 0.334-0.225 0.535c0 0.201 0.081 0.393 0.225 0.535s0.34 0.222 0.544 0.222c1.945 0 3.559 0.625 4.837 1.823 0.657 0.655 1.169 1.431 1.504 2.281 0.337 0.852 0.491 1.761 0.451 2.671-0.004 0.099 0.011 0.198 0.046 0.292s0.088 0.179 0.156 0.252c0.138 0.148 0.33 0.236 0.534 0.244s0.403-0.063 0.553-0.199c0.15-0.136 0.239-0.325 0.248-0.525 0.048-1.12-0.141-2.238-0.555-3.282-0.415-1.050-1.046-2.004-1.851-2.804l-0.015-0.015c-1.585-1.49-3.592-2.249-5.907-2.249zM15.445 7.882c-0.204 0-0.399 0.080-0.544 0.222s-0.225 0.334-0.225 0.535 0.081 0.393 0.225 0.535c0.144 0.142 0.34 0.222 0.544 0.222h0.026c1.402 0.098 2.423 0.558 3.138 1.313 0.733 0.777 1.113 1.744 1.084 2.939-0.005 0.201 0.072 0.395 0.213 0.54s0.335 0.229 0.538 0.234 0.401-0.071 0.549-0.209c0.148-0.139 0.233-0.329 0.238-0.53 0.037-1.569-0.477-2.922-1.494-4.002v-0.003c-1.041-1.098-2.469-1.679-4.188-1.793l-0.026-0.003-0.077 0.002zM15.416 10.415c-0.103-0.009-0.207 0.003-0.305 0.034s-0.189 0.082-0.267 0.149c-0.078 0.067-0.141 0.148-0.187 0.239s-0.071 0.191-0.077 0.292 0.010 0.203 0.045 0.298c0.035 0.095 0.090 0.183 0.16 0.257s0.156 0.134 0.25 0.175c0.094 0.041 0.196 0.063 0.3 0.065 0.643 0.033 1.053 0.224 1.312 0.48 0.26 0.257 0.454 0.67 0.489 1.316 0.002 0.102 0.025 0.202 0.067 0.294s0.103 0.176 0.178 0.245c0.076 0.069 0.164 0.123 0.261 0.157s0.2 0.050 0.303 0.044c0.103-0.005 0.204-0.031 0.297-0.076s0.175-0.107 0.243-0.184c0.068-0.077 0.119-0.166 0.151-0.262s0.044-0.198 0.035-0.3c-0.049-0.908-0.338-1.709-0.93-2.299-0.595-0.59-1.405-0.877-2.325-0.926z"></path>
            </symbol>
            <symbol id="icon-location" viewBox="0 0 22 32">
                <path d="M11.034 15.2c-1.045 0-2.048-0.421-2.787-1.172s-1.154-1.768-1.154-2.828 0.415-2.078 1.154-2.828c0.739-0.75 1.741-1.172 2.787-1.172s2.048 0.421 2.787 1.172c0.739 0.75 1.154 1.768 1.154 2.828 0 0.525-0.102 1.045-0.3 1.531s-0.488 0.926-0.854 1.298c-0.366 0.371-0.8 0.666-1.279 0.867s-0.991 0.304-1.508 0.304zM11.034 0c-2.927 0-5.733 1.18-7.803 3.28s-3.232 4.949-3.232 7.92c0 8.4 11.034 20.8 11.034 20.8s11.034-12.4 11.034-20.8c0-2.97-1.163-5.819-3.232-7.92s-4.876-3.28-7.803-3.28z"></path>
            </symbol>
            <symbol id="icon-mail" viewBox="0 0 39 32">
                <path d="M35.345 0h-31.418c-2.16 0-3.908 1.8-3.908 4l-0.020 24c0 2.2 1.767 4 3.927 4h31.418c2.16 0 3.927-1.8 3.927-4v-24c0-2.2-1.767-4-3.927-4zM35.345 8l-15.709 10-15.709-10v-4l15.709 10 15.709-10v4z"></path>
            </symbol>
            <symbol id="icon-tel" viewBox="0 0 32 32">
                <path d="M28.865 21.822l-4.525-0.517c-0.532-0.062-1.071-0.004-1.577 0.172s-0.966 0.464-1.344 0.843l-3.278 3.278c-5.057-2.572-9.167-6.682-11.739-11.739l3.296-3.296c0.766-0.766 1.14-1.835 1.015-2.921l-0.517-4.489c-0.101-0.869-0.518-1.671-1.172-2.252s-1.498-0.902-2.373-0.901h-3.082c-2.013 0-3.687 1.675-3.563 3.687 0.944 15.213 13.111 27.362 28.306 28.306 2.013 0.125 3.687-1.55 3.687-3.563v-3.082c0.018-1.799-1.336-3.313-3.135-3.527z"></path>
            </symbol>
        </defs>
    </svg>
</svg>