<svg xmlns="http://www.w3.org/2000/svg">
    <svg xmlns="http://www.w3.org/2000/svg" xmlns:xlink="http://www.w3.org/1999/xlink" aria-hidden="true" style="position:absolute;width:0;height:0;overflow:hidden">
        <defs>
            <symbol id="icon-arrow-left" viewBox="0 0 46 32">
                <path d="M.586 14.586a2 2 0 0 0 0 2.828l12.728 12.728a2 2 0 1 0 2.828-2.828L4.828 16 16.142 4.686a2 2 0 1 0-2.828-2.828L.586 14.586zM2 18h44v-4H2v4z"/>
            </symbol>
            <symbol id="icon-arrow-right" viewBox="0 0 46 32">
                <path d="M45.414 14.586a2 2 0 0 1 0 2.828L32.686 30.142a2 2 0 1 1-2.828-2.828L41.172 16 29.858 4.686a2 2 0 1 1 2.828-2.828l12.728 12.728zM44 18H0v-4h44v4z"/>
            </symbol>
            <symbol id="icon-occupation" viewBox="0 0 23 32">
                <path d="M11.676 10.101c-2.753 0-4.984-2.237-4.984-4.997S8.923.107 11.676.107s4.984 2.237 4.984 4.997-2.231 4.997-4.984 4.997zM0 14.543l4.753-3.84c1.514 1.443 3.03 2.298 3.6 2.545.877.416 3.249.999 5.722 0s3.8-2.514 4.153-3.146l5.123 3.609c-.877 1.434-2.215 2.591-3.784 3.794-1.255.962-3.477 1.789-4.43 2.082l8.215 7.865-4.43 4.441-7.245-6.847-7.338 6.847-4.338-4.58 8.122-7.541c-.477.015-1.966-.287-4.107-1.619S.447 15.192.001 14.544z"/>
            </symbol>
            <symbol id="icon-bg" viewBox="0 0 43 32">
                <path fill="#ef9156" d="M14.804 0C-5.363 0-.185 8.489 3.222 12.027s8.857 15.705 17.033 19.101c10.22 4.245 10.901-7.782 19.758-19.101S40.013 0 14.805 0z" style="fill:var(--color1, #ef9156)"/>
            </symbol>
            <symbol id="icon-arrow-bottom" viewBox="0 0 49 32">
                <path fill="transparent" stroke-width="4.923" d="M46.769 2.462 24.615 27.077 2.461 2.462"/>
            </symbol>
            <symbol id="icon-arrow-top" viewBox="0 0 23 32">
                <path d="M12.292.884a1.413 1.413 0 0 0-1.997 0L1.311 9.868a1.413 1.413 0 0 0 1.997 1.997l7.986-7.986 7.986 7.986a1.413 1.413 0 0 0 1.997-1.997L12.293.884zm-2.41.998V32h2.824V1.882H9.882z"/>
            </symbol>
            <symbol id="icon-facebook" viewBox="0 0 31 32">
                <path d="M30.897 16.566c0-8.549-6.921-15.487-15.448-15.487S.001 8.017.001 16.566c0 7.496 5.314 13.737 12.359 15.177V21.212H9.27v-4.646h3.09v-3.872c0-2.989 2.425-5.42 5.407-5.42h3.862v4.646h-3.09c-.85 0-1.545.697-1.545 1.549v3.097h4.634v4.646h-4.634v10.763c7.801-.774 13.903-7.372 13.903-15.41z"/>
            </symbol>
            <symbol id="icon-instagram" viewBox="0 0 31 32">
                <path d="M17.036 1.081c1.127-.004 2.255.007 3.382.034l.3.011c.346.012.687.028 1.1.046 1.644.077 2.765.337 3.749.718a7.507 7.507 0 0 1 2.737 1.783 7.583 7.583 0 0 1 1.781 2.736c.382.984.641 2.107.718 3.751.019.411.034.754.046 1.1l.009.3c.027 1.127.039 2.253.036 3.38l.002 1.152v2.024c.004 1.127-.008 2.255-.036 3.382l-.009.3c-.012.346-.028.687-.046 1.1-.077 1.644-.34 2.765-.72 3.749a7.544 7.544 0 0 1-1.781 2.737 7.587 7.587 0 0 1-2.737 1.781c-.984.382-2.105.641-3.749.718-.412.019-.754.034-1.1.046l-.3.009a127.07 127.07 0 0 1-3.382.036l-3.174.002c-1.127.004-2.255-.008-3.381-.036l-.3-.009c-.367-.013-.733-.029-1.1-.046-1.644-.077-2.765-.34-3.751-.72a7.549 7.549 0 0 1-2.736-1.781 7.58 7.58 0 0 1-1.783-2.737c-.382-.984-.641-2.106-.718-3.749-.017-.367-.033-.733-.046-1.1l-.008-.3A127.07 127.07 0 0 1 0 18.116V14.94c-.004-1.127.007-2.253.034-3.38l.011-.3c.012-.346.028-.689.046-1.1.077-1.645.337-2.765.718-3.751a7.532 7.532 0 0 1 1.786-2.734 7.557 7.557 0 0 1 2.734-1.784c.986-.382 2.106-.641 3.751-.718l1.1-.046.3-.008a126.92 126.92 0 0 1 3.38-.039l3.176.002zm-1.588 7.723a7.718 7.718 0 0 0-7.235 4.742 7.725 7.725 0 0 0 7.235 10.704 7.72 7.72 0 0 0 7.724-7.724 7.72 7.72 0 0 0-7.724-7.723zm0 3.09a4.632 4.632 0 0 1 4.358 6.426 4.64 4.64 0 0 1-4.357 2.841 4.634 4.634 0 1 1 0-9.268l-.002.002zm8.11-5.407a1.93 1.93 0 0 0-1.853 1.93 1.934 1.934 0 0 0 1.853 1.93 1.933 1.933 0 0 0 1.365-3.296 1.933 1.933 0 0 0-1.365-.566v.003z"/>
            </symbol>
            <symbol id="icon-viber" viewBox="0 0 29 32">
                <path d="m21.797 1.807.521.115c1.361.299 2.611.963 3.611 1.919s1.711 2.166 2.055 3.496a28.99 28.99 0 0 1 0 14.487c-.343 1.33-1.054 2.54-2.054 3.496s-2.25 1.621-3.61 1.92l-.523.113a34.211 34.211 0 0 1-9.397.737l-4.199 3.695a.784.784 0 0 1-.767.15.768.768 0 0 1-.333-.226.745.745 0 0 1-.17-.362l-.715-4.199c-1.281-.349-2.446-1.026-3.376-1.961S1.248 23.092.921 21.824a28.99 28.99 0 0 1 0-14.487c.343-1.33 1.054-2.54 2.054-3.495s2.25-1.62 3.61-1.92l.521-.113a34.206 34.206 0 0 1 14.691 0zM8.403 7.213a1.286 1.286 0 0 0-.826.16h-.022a6.299 6.299 0 0 0-1.539 1.245c-.369.419-.569.843-.621 1.251-.031.242-.009.487.063.718l.028.015a17.842 17.842 0 0 0 1.617 3.44 20.325 20.325 0 0 0 3.121 4.198l.037.051.058.042.035.041.043.036a20.837 20.837 0 0 0 4.277 3.086c1.776.951 2.854 1.401 3.501 1.588v.009c.189.058.361.083.535.083a2.5 2.5 0 0 0 1.482-.626 5.97 5.97 0 0 0 1.252-1.519v-.011c.309-.575.204-1.116-.241-1.484a18.626 18.626 0 0 0-2.892-2.042c-.689-.367-1.388-.145-1.671.227l-.604.75c-.311.372-.873.321-.873.321l-.015.009c-4.199-1.054-5.32-5.237-5.32-5.237s-.052-.569.337-.859l.756-.599c.363-.29.615-.977.226-1.655a17.898 17.898 0 0 0-2.071-2.844 1.152 1.152 0 0 0-.677-.398l.003.002zm7.094-1.818c-.204 0-.399.08-.544.222a.747.747 0 0 0 0 1.07c.144.142.34.222.544.222 1.945 0 3.559.625 4.837 1.823a6.685 6.685 0 0 1 1.504 2.281c.337.852.491 1.761.451 2.671a.748.748 0 0 0 .202.544.778.778 0 0 0 1.087.045.755.755 0 0 0 .248-.525 7.976 7.976 0 0 0-.555-3.282 8.21 8.21 0 0 0-1.851-2.804l-.015-.015c-1.585-1.49-3.592-2.249-5.907-2.249zm-.052 2.487c-.204 0-.399.08-.544.222a.747.747 0 0 0 0 1.07c.144.142.34.222.544.222h.026c1.402.098 2.423.558 3.138 1.313.733.777 1.113 1.744 1.084 2.939-.005.201.072.395.213.54a.778.778 0 0 0 1.087.025.751.751 0 0 0 .238-.53c.037-1.569-.477-2.922-1.494-4.002v-.003c-1.041-1.098-2.469-1.679-4.188-1.793l-.026-.003-.077.002zm-.029 2.533a.786.786 0 0 0-.572.183.745.745 0 0 0-.059 1.086.769.769 0 0 0 .55.24c.643.033 1.053.224 1.312.48.26.257.454.67.489 1.316a.743.743 0 0 0 .245.539.765.765 0 0 0 .564.201.768.768 0 0 0 .726-.822c-.049-.908-.338-1.709-.93-2.299-.595-.59-1.405-.877-2.325-.926z"/>
            </symbol>
            <symbol id="icon-location" viewBox="0 0 22 32">
                <path d="M11.034 15.2c-1.045 0-2.048-.421-2.787-1.172S7.093 12.26 7.093 11.2s.415-2.078 1.154-2.828c.739-.75 1.741-1.172 2.787-1.172s2.048.421 2.787 1.172a4.03 4.03 0 0 1 1.154 2.828c0 .525-.102 1.045-.3 1.531s-.488.926-.854 1.298c-.366.371-.8.666-1.279.867s-.991.304-1.508.304zm0-15.2C8.107 0 5.301 1.18 3.231 3.28S-.001 8.229-.001 11.2c0 8.4 11.034 20.8 11.034 20.8s11.034-12.4 11.034-20.8c0-2.97-1.163-5.819-3.232-7.92S13.959 0 11.032 0z"/>
            </symbol>
            <symbol id="icon-mail" viewBox="0 0 39 32">
                <path d="M35.345 0H3.927C1.767 0 .019 1.8.019 4l-.02 24c0 2.2 1.767 4 3.927 4h31.418c2.16 0 3.927-1.8 3.927-4V4c0-2.2-1.767-4-3.927-4zm0 8L19.636 18 3.927 8V4l15.709 10L35.345 4v4z"/>
            </symbol>
            <symbol id="icon-tel" viewBox="0 0 32 32">
                <path d="m28.865 21.822-4.525-.517a3.549 3.549 0 0 0-2.921 1.015l-3.278 3.278A26.8 26.8 0 0 1 6.402 13.859l3.296-3.296a3.545 3.545 0 0 0 1.015-2.921l-.517-4.489A3.563 3.563 0 0 0 6.651 0H3.569C1.556 0-.118 1.675.006 3.687.95 18.9 13.117 31.049 28.312 31.993c2.013.125 3.687-1.55 3.687-3.563v-3.082c.018-1.799-1.336-3.313-3.135-3.527z"/>
            </symbol>
        </defs>
    </svg>
</svg>