<svg xmlns="http://www.w3.org/2000/svg">
    <svg xmlns="http://www.w3.org/2000/svg" xmlns:xlink="http://www.w3.org/1999/xlink" aria-hidden="true" style="position:absolute;width:0;height:0;overflow:hidden">
        <defs>
            <symbol id="icon-arrow-left" viewBox="0 0 46 32">
                <path d="M.586 14.586a2 2 0 0 0 0 2.828l12.728 12.728a2 2 0 1 0 2.828-2.828L4.828 16 16.142 4.686a2 2 0 1 0-2.828-2.828L.586 14.586zM2 18h44v-4H2v4z"/>
            </symbol>
            <symbol id="icon-arrow-right" viewBox="0 0 46 32">
                <path d="M45.414 14.586a2 2 0 0 1 0 2.828L32.686 30.142a2 2 0 1 1-2.828-2.828L41.172 16 29.858 4.686a2 2 0 1 1 2.828-2.828l12.728 12.728zM44 18H0v-4h44v4z"/>
            </symbol>
            <symbol id="icon-occupation" viewBox="0 0 23 32">
                <path d="M11.676 10.101c-2.753 0-4.984-2.237-4.984-4.997s2.231-4.997 4.984-4.997c2.753 0 4.984 2.237 4.984 4.997s-2.231 4.997-4.984 4.997z"></path>
                <path d="M0 14.543l4.753-3.84c1.514 1.443 3.030 2.298 3.6 2.545 0.877 0.416 3.249 0.999 5.722 0s3.8-2.514 4.153-3.146l5.123 3.609c-0.877 1.434-2.215 2.591-3.784 3.794-1.255 0.962-3.477 1.789-4.43 2.082l8.215 7.865-4.43 4.441-7.245-6.847-7.338 6.847-4.338-4.58 8.122-7.541c-0.477 0.015-1.966-0.287-4.107-1.619s-3.569-2.961-4.015-3.609z"></path>
            </symbol>
            <symbol id="icon-bg" viewBox="0 0 43 32">
                <path fill="#ef9156" style="fill: var(--color1, #ef9156)" d="M14.804 0c-20.167 0-14.989 8.489-11.582 12.027s8.857 15.705 17.033 19.101c10.22 4.245 10.901-7.782 19.758-19.101s0-12.027-25.208-12.027z"></path>
            </symbol>
            <symbol id="icon-arrow-bottom" viewBox="0 0 49 32">
                <path fill="transparent" stroke-linejoin="miter" stroke-linecap="butt" stroke-miterlimit="4" stroke-width="4.9231" d="M46.769 2.462l-22.154 24.615-22.154-24.615"></path>
            </symbol>
        </defs>
    </svg>
</svg>